<svg width="53" height="28" viewBox="0 0 53 28" fill="none" xmlns="http://www.w3.org/2000/svg">
<mask id="mask0_270_1065" style="mask-type:alpha" maskUnits="userSpaceOnUse" x="0" y="0" width="27" height="28">
<rect y="0.957031" width="26.5" height="26.5" fill="#D9D9D9"/>
</mask>
<g mask="url(#mask0_270_1065)">
<path d="M5.52214 25.2489V23.0405H12.1471V18.6239H9.9388C8.41137 18.6239 7.10938 18.0856 6.03281 17.009C4.95625 15.9325 4.41797 14.6305 4.41797 13.103C4.41797 11.9989 4.72161 10.9821 5.32891 10.0528C5.9362 9.12343 6.75512 8.44712 7.78568 8.02386C7.9513 6.64365 8.55399 5.48888 9.59375 4.55954C10.6335 3.6302 11.8527 3.16553 13.2513 3.16553C14.6499 3.16553 15.8691 3.6302 16.9089 4.55954C17.9486 5.48888 18.5513 6.64365 18.7169 8.02386C19.7475 8.44712 20.5664 9.12343 21.1737 10.0528C21.781 10.9821 22.0846 11.9989 22.0846 13.103C22.0846 14.6305 21.5464 15.9325 20.4698 17.009C19.3932 18.0856 18.0912 18.6239 16.5638 18.6239H14.3555V23.0405H20.9805V25.2489H5.52214ZM9.9388 16.4155H16.5638C17.4839 16.4155 18.2661 16.0935 18.9102 15.4494C19.5543 14.8053 19.8763 14.0232 19.8763 13.103C19.8763 12.4405 19.6877 11.8332 19.3104 11.2812C18.9332 10.7291 18.4409 10.3242 17.8336 10.0666L16.6742 9.56969L16.5086 8.2999C16.3982 7.47178 16.0347 6.77707 15.4182 6.21579C14.8017 5.6545 14.0794 5.37386 13.2513 5.37386C12.4232 5.37386 11.7009 5.6545 11.0844 6.21579C10.4679 6.77707 10.1044 7.47178 9.99401 8.2999L9.82839 9.56969L8.66901 10.0666C8.06172 10.3242 7.56944 10.7291 7.19219 11.2812C6.81493 11.8332 6.6263 12.4405 6.6263 13.103C6.6263 14.0232 6.94835 14.8053 7.59245 15.4494C8.23655 16.0935 9.01866 16.4155 9.9388 16.4155Z" fill="#69AF74"/>
</g>
<mask id="mask1_270_1065" style="mask-type:alpha" maskUnits="userSpaceOnUse" x="26" y="0" width="27" height="28">
<rect x="26.5" y="0.957031" width="26.5" height="26.5" fill="#D9D9D9"/>
</mask>
<g mask="url(#mask1_270_1065)">
<path d="M34.2292 25.2489V20.8322H26.5L30.751 14.2072H28.7083L36.4375 3.16553L39.75 7.91344L43.0625 3.16553L50.7917 14.2072H48.749L53 20.8322H45.2708V25.2489H40.8542V20.8322H38.6458V25.2489H34.2292ZM44.9672 18.6239H48.9698L44.6911 11.9989H46.5406L43.0625 7.03011L41.1026 9.81813L44.1667 14.2072H42.124L44.9672 18.6239ZM30.5302 18.6239H42.3448L38.0661 11.9989H39.9156L36.4375 7.03011L32.9594 11.9989H34.8089L30.5302 18.6239ZM30.5302 18.6239H34.8089H32.9594H39.9156H38.0661H42.3448H30.5302ZM44.9672 18.6239H42.124H44.1667H41.1026H46.5406H44.6911H48.9698H44.9672Z" fill="#FDC56B"/>
</g>
</svg>
